<?xml version="1.0" ?>
<!-- Uploaded to: SVG Repo, www.svgrepo.com, Generator: SVG Repo Mixer Tools -->
<svg width="800px" height="800px" viewBox="0 0 64 64" xmlns="http://www.w3.org/2000/svg">
<g id="a"/>
<g id="b"/>
<g id="c"/>
<g id="d"/>
<g id="e"/>
<g id="f"/>
<g id="g"/>
<g id="h"/>
<g id="i"/>
<g id="j"/>
<g id="k"/>
<g id="l"/>
<g id="m"/>
<g id="n"/>
<g id="o"/>
<g id="p"/>
<g id="q"/>
<g id="r"/>
<g id="s"/>
<g id="t"/>
<g id="u"/>
<g id="v"/>
<g id="w"/>
<g id="x"/>
<g id="y"/>
<g id="a`"/>
<g id="aa"/>
<g id="ab"/>
<g id="ac"/>
<g id="ad"/>
<g id="ae"/>
<g id="af"/>
<g id="ag"/>
<g id="ah"/>
<g id="ai"/>
<g id="aj"/>
<g id="ak"/>
<g id="al">
<path d="M24.04,9.76c-6.39,0-11.53,5.14-11.53,11.53v5.39h23.06v-5.39c0-6.39-5.14-11.53-11.53-11.53Z" fill="#9fa9b6" fill-rule="evenodd"/>
<path d="M36.32,42.51l-3.61,5.98,2.68,5.75h4.87c.24,0,.48-.03,.7-.09l1.83-7.96-3.12-1.04c-1.05-1.13-2.22-1.98-3.35-2.63Z" fill="#9fa9b6" fill-rule="evenodd"/>
<path d="M11.58,42.51c-2.67,1.53-5.54,4.22-6.53,8.86-.33,1.56,.99,2.87,2.59,2.87h4.87l1.71-5.11-2.64-6.62Z" fill="#9fa9b6" fill-rule="evenodd"/>
<path d="M16.9,40.57s-2.55,.35-5.32,1.94c1.67,4.9,.93,11.73,.93,11.73h22.87s-.74-6.83,.93-11.73c-2.77-1.59-5.32-1.95-5.32-1.95h-14.1Z" fill="#f3f5f7" fill-rule="evenodd"/>
<path d="M19.48,39.29c-.25-.59-.39-1.23-.39-1.92v-.63h9.71v.63c0,.68-.14,1.33-.39,1.92l.18,2.94-8.82-.68-.29-2.26Z" fill="#f0cac5" fill-rule="evenodd"/>
<path d="M48.41,30.3c-3.63,0-6.57,2.94-6.57,6.57,0,2.47,1.38,4.72,3.58,5.85l3.69,.9,4.5-2.75c.88-1.15,1.36-2.56,1.36-4,0-3.63-2.94-6.57-6.57-6.57Z" fill="#f2d865" fill-rule="evenodd"/>
<path d="M48.41,30.3c-.41,0-.82,.04-1.21,.11,3.05,.57,5.36,3.24,5.36,6.45,0,1.45-.48,2.86-1.36,4l-3.81,2.32,1.72,.42,4.5-2.75c.88-1.15,1.36-2.56,1.36-4,0-3.63-2.94-6.57-6.57-6.57Z" fill="#e9c03d" fill-rule="evenodd"/>
<path d="M47.78,42.71h-6.27c-1.07,0-1.92,.86-1.92,1.92s.86,1.92,1.92,1.92v3.84c-1.06,0-1.92,.86-1.92,1.92s.86,1.92,1.92,1.92h9c.45,0,.85-.15,1.18-.4l-3.91-11.13Z" fill="#f2d865" fill-rule="evenodd"/>
<path d="M16.99,22.22c3.42-.73,3.99-3.75,3.99-3.75,1.9,6.31,14.6-.42,14.6,8.21,0,6.39-5.14,11.53-11.53,11.53s-11.53-5.14-11.53-11.53c0-2.03,1.4-3.81,4.47-4.46Z" fill="#f5dcd2" fill-rule="evenodd"/>
<path d="M25.25,45.25c.95,1.23,2.44,1.94,3.21,2.33,.94,.49,2.21-.28,2.54-1.3,.29-.88,.55-1.95,.55-2.86s-.27-1.98-.55-2.86c-.33-1.02-1.61-1.79-2.54-1.3-.77,.4-1.75,1.1-2.91,2.34h-3.2c-1.16-1.23-2.14-1.94-2.91-2.34-.94-.49-2.21,.29-2.54,1.3-.29,.88-.55,1.95-.55,2.86s.27,1.98,.55,2.86c.33,1.02,1.6,1.79,2.54,1.3,.77-.4,2.26-1.1,3.21-2.33h2.6Z" fill="#e8a3c1" fill-rule="evenodd"/>
<path d="M29.01,39.12c-.19,.01-.38,.06-.55,.15-.18,.09-.37,.2-.58,.34,.31,.26,.56,.59,.68,.96,.29,.88,.55,1.95,.55,2.86s-.27,1.98-.55,2.86c-.12,.38-.38,.73-.7,.99,.22,.12,.44,.23,.6,.31,.94,.49,2.21-.28,2.54-1.3,.29-.88,.55-1.95,.55-2.86s-.27-1.98-.55-2.86c-.27-.83-1.16-1.49-1.99-1.45Zm-6.66,2.48c-1.16-1.23-2.14-1.94-2.91-2.33-.18-.09-.36-.14-.55-.15-.45-.02-.93,.17-1.31,.49,.66,.42,1.45,1.05,2.33,2l.3,3.65c-.74,.96-1.8,1.6-2.6,2.02,.54,.43,1.25,.62,1.84,.31,.77-.4,2.26-1.1,3.21-2.33l-.3-3.65Z" fill="#e38fb6" fill-rule="evenodd"/>
<path d="M46.65,50.4h-5.14c-1.07,0-1.92-.86-1.92-1.92s.86-1.92,1.92-1.92h4.41l.73,3.84Z" fill="#e9c03d" fill-rule="evenodd"/>
<path d="M59,47.32c0,3.63-2.94,6.57-6.57,6.57s-6.57-2.94-6.57-6.57,2.94-6.57,6.57-6.57,6.57,2.94,6.57,6.57Z" fill="#f5e680" fill-rule="evenodd"/>
<path d="M52.43,40.75c-.43,0-.86,.05-1.28,.14,3.04,.64,5.21,3.32,5.21,6.42,0,3.11-2.2,5.79-5.25,6.41,.43,.09,.88,.14,1.32,.15,3.63,0,6.57-2.94,6.57-6.57,0-3.63-2.94-6.57-6.57-6.57Z" fill="#f2d865" fill-rule="evenodd"/>
<path d="M32.73,22.74c.56,.8,.83,1.73,.83,2.71,0,6.71-4.63,12.18-10.56,12.72,.34,.03,.69,.05,1.05,.05,6.39,0,11.53-5.14,11.53-11.53,0-1.62-.9-3.09-2.84-3.94Z" fill="#f0cac5" fill-rule="evenodd"/>
<path d="M23.95,40.68c-1.02,0-1.85,.82-1.85,1.84v1.42c0,1.02,.82,1.84,1.85,1.84s1.84-.82,1.84-1.84v-1.42c0-1.02-.82-1.84-1.84-1.84Z" fill="#f1cedd" fill-rule="evenodd"/>
<circle cx="23.95" cy="49.97" r="1"/>
<path d="M50.51,55.24c.5,0,.98-.17,1.41-.41,.17,.01,.33,.05,.51,.05,4.17,0,7.57-3.39,7.57-7.57,0-3.21-2.02-5.94-4.85-7.04,.53-1.06,.83-2.23,.83-3.41,0-4.17-3.39-7.57-7.57-7.57s-7.57,3.39-7.57,7.57c0,1.83,.7,3.51,1.84,4.85h-1.18c-1.07,0-1.97,.61-2.48,1.47-2.04-1.69-4.94-3.04-7.44-3.52-.35-.57-.83-1.07-1.46-1.33-.14-.06-.27-.04-.41-.08,.02-.16,.04-.32,.05-.48,4.02-2.09,6.81-6.25,6.81-11.08v-5.39c0-6.91-5.62-12.53-12.53-12.53s-12.53,5.62-12.53,12.53v5.39c0,4.76,2.69,8.85,6.61,10.97,0,.2,.03,.4,.06,.59-.14,.03-.27,.02-.41,.08-.63,.26-1.11,.76-1.46,1.33-5.55,1.15-10.86,5.05-12.23,11.5-.21,.98,.02,1.94,.65,2.72,.69,.85,1.77,1.35,2.91,1.35H50.51ZM15.95,46.6c.39,1.2,1.61,2.15,2.87,2.15,1.11,0,3.14-1.37,3.99-2.2,.35,.16,.73,.25,1.14,.25s.79-.09,1.14-.25c.85,.82,2.88,2.2,3.99,2.2,.34,0,.69-.07,1.04-.21,.85-.35,1.55-1.09,1.83-1.93,.4-1.23,.6-2.29,.6-3.17,0-.45-.06-.96-.17-1.51,.76,.22,1.71,.57,2.76,1.1-1.07,3.78-.97,8.2-.84,10.22H13.59c.13-2.02,.23-6.44-.84-10.22,1.04-.52,2.01-.9,2.76-1.11-.11,.55-.17,1.07-.17,1.52,0,.87,.2,1.94,.6,3.17Zm4.41-7.92s0-.06-.02-.09c1.18,.37,2.41,.62,3.71,.62,1.22,0,2.38-.23,3.5-.56,0,0,0,.02,0,.03-.65,.39-1.32,.92-1.99,1.56-.46-.32-.99-.55-1.6-.55s-1.14,.23-1.6,.55c-.67-.64-1.34-1.16-1.99-1.56Zm2.75,5.26v-1.42c0-.47,.37-.84,.84-.84s.84,.37,.84,.84v1.42c0,.47-.38,.85-.84,.85s-.84-.37-.84-.85Zm21.79,3.61c.02,.64,.13,1.25,.3,1.84h-3.69c-.51,0-.92-.41-.92-.92s.41-.92,.92-.92h3.38Zm-5.54-1c-.46,.52-.76,1.18-.76,1.92s.3,1.4,.76,1.92c-.46,.52-.76,1.18-.76,1.92,0,.33,.09,.63,.19,.92h-2.47c-.12-1.72-.24-5.7,.61-9.13,.65,.46,1.29,.97,1.89,1.6,.13,.32,.32,.59,.54,.84Zm2.16,6.69c-.51,0-.92-.41-.92-.92s.41-.92,.92-.92h4.57c.46,.71,1.04,1.32,1.7,1.84h-6.27Zm16.49-5.92c0,3.07-2.5,5.57-5.57,5.57s-5.57-2.5-5.57-5.57c0-1.51,.61-2.89,1.6-3.89,.02-.01,.02-.03,.04-.05,1.01-1.01,2.4-1.63,3.93-1.63,3.07,0,5.57,2.5,5.57,5.56Zm-15.15-10.45c0-3.07,2.5-5.57,5.57-5.57s5.57,2.5,5.57,5.57c0,1.05-.36,2.07-.92,2.95-.21-.02-.41-.06-.63-.06-1.94,0-3.69,.75-5.03,1.96h-1.68c-1.77-.98-2.88-2.81-2.88-4.85Zm-1.34,6.85h4.32c-.32,.58-.57,1.19-.73,1.84h-3.59c-.51,0-.92-.41-.92-.92s.41-.92,.92-.92Zm-11.46-2.83c.33,1.01,.5,1.9,.5,2.55s-.17,1.54-.5,2.55c-.09,.29-.37,.57-.68,.7-.29,.12-.39,.06-.64-.08-.59-.3-1.46-.83-2.18-1.51,.16-.35,.25-.74,.25-1.15v-1.42c0-.22-.08-.41-.12-.61,.78-.77,1.54-1.39,2.25-1.76,.15-.08,.35-.02,.45,.03,.31,.13,.59,.41,.68,.7Zm-6-30.12c5.81,0,10.53,4.72,10.53,10.53v.85c-1.7-1.22-4.18-1.37-6.38-1.47-3.41-.16-5.53-.43-6.2-2.39,.05-2.21,.77-3.02,.76-3.02h0c.42-.36,.47-.99,.11-1.41-.36-.42-.99-.47-1.41-.11-.15,.13-1.4,1.34-1.46,4.53h0c-.02,.1-.53,2.39-3.22,2.96-1.35,.29-2.41,.84-3.27,1.53v-1.48c0-5.81,4.72-10.53,10.53-10.53Zm-10.53,15.92c0-1.74,1.31-2.98,3.68-3.48,2.01-.43,3.2-1.53,3.88-2.54,1.63,1.75,4.46,1.89,7.02,2.01,4.13,.19,6.47,.48,6.47,4.02,0,5.81-4.72,10.53-10.53,10.53s-10.53-4.72-10.53-10.53Zm5.02,13.5c.1-.04,.3-.1,.45-.03,.71,.37,1.47,.99,2.25,1.76-.05,.2-.12,.39-.12,.61v1.42c0,.41,.09,.79,.25,1.15-.72,.68-1.59,1.21-2.18,1.51-.22,.11-.32,.2-.64,.07-.31-.13-.59-.41-.68-.7-.33-1.01-.5-1.9-.5-2.55s.17-1.53,.5-2.55c.09-.29,.37-.57,.68-.7Zm-7.55,3.93c.84,3.43,.72,7.41,.61,9.13h-3.95c-.54,0-1.05-.23-1.36-.61-.17-.21-.36-.57-.25-1.05,.78-3.68,2.83-5.98,4.95-7.47Z"/>
<path d="M51.43,46.2v2.23c0,.55,.45,1,1,1s1-.45,1-1v-2.23c0-.55-.45-1-1-1s-1,.45-1,1Z"/>
<path d="M48.41,38.98c.55,0,1-.45,1-1v-2.23c0-.55-.45-1-1-1s-1,.45-1,1v2.23c0,.55,.45,1,1,1Z"/>
</g>
<g id="am"/>
<g id="an"/>
<g id="ao"/>
<g id="ap"/>
<g id="aq"/>
<g id="ar"/>
<g id="as"/>
<g id="at"/>
<g id="au"/>
<g id="av"/>
<g id="aw"/>
<g id="ax"/>
</svg>