<?xml version="1.0" encoding="iso-8859-1"?>
<!-- Uploaded to: SVG Repo, www.svgrepo.com, Generator: SVG Repo Mixer Tools -->
<svg height="800px" width="800px" version="1.1" id="Layer_1" xmlns="http://www.w3.org/2000/svg" xmlns:xlink="http://www.w3.org/1999/xlink" 
	 viewBox="0 0 512 512" xml:space="preserve">
<path style="fill:#FFC033;" d="M376.215,234.076H135.78c-9.032,1.848-14.859,10.674-13.01,19.706l50.087,244.87
	c1.587,7.771,8.423,13.348,16.358,13.348H322.78c7.935,0,14.771-5.576,16.358-13.348l50.087-244.87
	C391.073,244.75,385.247,235.924,376.215,234.076z"/>
<path style="fill:#F9A926;" d="M376.215,234.076H255.997V512h66.783c7.935,0,14.771-5.576,16.358-13.348l50.087-244.87
	C391.073,244.75,385.247,235.924,376.215,234.076z"/>
<path style="fill:#D7EBFF;" d="M428.269,185.315c-6.293-7.652-14.533-13.174-23.696-16.055c5.152-40.097-5.38-79.859-29.989-111.37
	C346.28,21.641,301.954,0,255.997,0c-46.631,0-89.848,21.087-118.555,57.858c-24.619,31.533-35.163,71.305-30.022,111.402
	c-9.163,2.881-17.402,8.402-23.696,16.055c-9.554,11.641-13.348,26.837-10.391,41.717c4.62,23.229,25.88,40.099,50.566,40.099
	h65.316c9.206,0,16.696,7.49,16.696,16.696c0,15.022,6.696,29.131,18.359,38.706c9.055,7.435,20.25,11.381,31.783,11.381
	c3.293,0,6.619-0.326,9.935-0.99c23.228-4.619,40.097-25.88,40.097-50.566c0-8.402,6.826-15.229,15.229-15.229h66.783
	c24.685,0,45.945-16.869,50.566-40.097c0.011-0.011,0.011-0.011,0.011-0.011C441.616,212.152,437.823,196.956,428.269,185.315z"/>
<path style="fill:#BDDEFF;" d="M256.052,333.913c3.293,0,6.619-0.326,9.935-0.99c23.228-4.619,40.097-25.88,40.097-50.566
	c0-8.402,6.826-15.229,15.229-15.229h66.783c24.685,0,45.945-16.869,50.566-40.097c0.011-0.011,0.011-0.011,0.011-0.011
	c2.945-14.869-0.848-30.066-10.402-41.707c-6.293-7.652-14.533-13.174-23.696-16.055c5.152-40.097-5.38-79.859-29.989-111.37
	C346.28,21.641,301.954,0,255.997,0v333.909C256.016,333.909,256.032,333.913,256.052,333.913z"/>
<circle style="fill:#36D9D9;" cx="222.608" cy="150.261" r="16.696"/>
<g>
	<circle style="fill:#43BFBF;" cx="289.391" cy="183.652" r="16.696"/>
	<circle style="fill:#43BFBF;" cx="322.782" cy="116.87" r="16.696"/>
</g>
<circle style="fill:#36D9D9;" cx="256" cy="83.478" r="16.696"/>
</svg>